#N canvas 2798 298 708 498 10;
#X floatatom 82 249 5 0 0 0 - - -, f 5;
#X floatatom 125 253 5 0 0 0 - - -, f 5;
#X floatatom 268 269 5 0 0 0 - - -, f 5;
#X obj 78 437 noteout;
#X obj 86 277 makenote 1 1000;
#X obj 82 218 bng 15 250 50 0 empty empty empty 17 7 0 10 -262144 -1
-1;
#X obj 115 44 metro 1100;
#X obj 116 11 tgl 15 0 empty empty empty 17 7 0 10 -262144 -1 -1 1
1;
#X obj 115 79 counter 8;
#X obj 103 113 sel 1;
#X obj 158 116 sel 2;
#X msg 101 152 53;
#X msg 162 148 54;
#X obj 213 116 sel 3;
#X obj 268 119 sel 4;
#X msg 211 155 55;
#X msg 272 151 56;
#X msg 326 157 57;
#X msg 387 153 52;
#X msg 436 160 51;
#X msg 497 156 50;
#X obj 328 118 sel 5;
#X obj 383 121 sel 6;
#X obj 438 121 sel 7;
#X obj 493 124 sel 8;
#X floatatom 182 18 5 0 0 0 - - -, f 5;
#X floatatom 190 244 5 0 0 0 - - -, f 5;
#X obj 90 328 pack 0 0 0;
#X obj 265 380 print;
#X obj 71 389 unpack 0 0 0;
#X connect 0 0 4 0;
#X connect 1 0 4 1;
#X connect 2 0 27 2;
#X connect 4 0 27 0;
#X connect 4 1 27 1;
#X connect 5 0 0 0;
#X connect 6 0 8 0;
#X connect 7 0 6 0;
#X connect 8 0 9 0;
#X connect 8 0 10 0;
#X connect 8 0 13 0;
#X connect 8 0 14 0;
#X connect 8 0 21 0;
#X connect 8 0 22 0;
#X connect 8 0 23 0;
#X connect 8 0 24 0;
#X connect 9 0 11 0;
#X connect 10 0 12 0;
#X connect 11 0 0 0;
#X connect 12 0 0 0;
#X connect 13 0 15 0;
#X connect 14 0 16 0;
#X connect 15 0 0 0;
#X connect 16 0 0 0;
#X connect 17 0 0 0;
#X connect 18 0 0 0;
#X connect 19 0 0 0;
#X connect 20 0 0 0;
#X connect 21 0 17 0;
#X connect 22 0 18 0;
#X connect 23 0 19 0;
#X connect 24 0 20 0;
#X connect 25 0 6 1;
#X connect 26 0 4 2;
#X connect 27 0 28 0;
#X connect 27 0 29 0;
#X connect 29 0 3 0;
#X connect 29 1 3 1;
#X connect 29 2 3 2;
